<svg width="35" height="35" viewBox="0 0 35 35" fill="none" xmlns="http://www.w3.org/2000/svg">
<path d="M26.1231 7.33469L17.5 15.9578L8.8769 7.33469C8.6695 7.1449 8.39687 7.04245 8.11581 7.04868C7.83475 7.0549 7.56693 7.16933 7.36814 7.36812C7.16935 7.56691 7.05492 7.83473 7.0487 8.11579C7.04247 8.39685 7.14492 8.66948 7.33471 8.87688L15.9535 17.5L7.33252 26.1209C7.2272 26.2213 7.143 26.3417 7.08489 26.4751C7.02677 26.6085 6.9959 26.7521 6.9941 26.8976C6.9923 27.0431 7.0196 27.1875 7.0744 27.3222C7.12919 27.457 7.21038 27.5795 7.31318 27.6824C7.41599 27.7854 7.53834 27.8668 7.67304 27.9217C7.80774 27.9767 7.95207 28.0042 8.09755 28.0026C8.24303 28.001 8.38673 27.9704 8.52019 27.9124C8.65365 27.8545 8.77419 27.7705 8.87471 27.6653L17.5 19.0444L26.1231 27.6675C26.3305 27.8573 26.6032 27.9597 26.8842 27.9535C27.1653 27.9473 27.4331 27.8329 27.6319 27.6341C27.8307 27.4353 27.9451 27.1675 27.9513 26.8864C27.9576 26.6053 27.8551 26.3327 27.6653 26.1253L19.0422 17.5022L27.6653 8.87688C27.7707 8.7765 27.8549 8.65609 27.913 8.52271C27.9711 8.38933 28.002 8.24568 28.0038 8.1002C28.0056 7.95472 27.9783 7.81035 27.9235 7.67557C27.8687 7.54079 27.7875 7.41833 27.6847 7.31538C27.5819 7.21242 27.4595 7.13106 27.3248 7.07608C27.1901 7.02109 27.0458 6.99359 26.9003 6.99518C26.7548 6.99678 26.6111 7.02744 26.4777 7.08537C26.3442 7.1433 26.2237 7.22732 26.1231 7.3325V7.33469Z" fill="#111111"/>
</svg>
